<svg width="20" height="20" viewBox="0 0 20 20" fill="none" xmlns="http://www.w3.org/2000/svg">
<path d="M0.00390625 10.8202C0.00390625 10.2735 0.00390625 9.72684 0.00390625 9.18017C0.0562306 9.16416 0.0406114 9.11887 0.0441257 9.08333C0.0862975 8.67606 0.148774 8.27231 0.233118 7.87128C1.07773 3.86731 4.47451 0.689198 8.52223 0.11246C8.74168 0.0812212 8.97011 0.0944975 9.18019 0.00390625C9.7007 0.00390625 10.2216 0.00390625 10.7421 0.00390625C10.7534 0.0464685 10.789 0.0390494 10.8198 0.0410018C11.1252 0.0589638 11.427 0.103088 11.7281 0.154631C15.9378 0.876237 19.2733 4.3066 19.8895 8.54213C19.9223 8.76822 19.9098 9.00211 19.9965 9.21961C19.9965 9.7534 19.9965 10.2868 19.9965 10.8206C19.9438 10.8362 19.9598 10.8819 19.9559 10.917C19.9192 11.2528 19.8731 11.5867 19.8091 11.919C19.0144 16.0491 15.6208 19.2869 11.4586 19.8898C11.2197 19.9246 10.9741 19.9164 10.7421 19.9968C10.2216 19.9968 9.7007 19.9968 9.18019 19.9968C9.15871 19.9355 9.10443 19.9597 9.06421 19.9558C7.12353 19.7579 5.37301 19.0777 3.84428 17.8621C1.772 16.2143 0.523245 14.0795 0.110507 11.459C0.076926 11.2458 0.0933262 11.0236 0.00390625 10.8202ZM7.30081 10.8284C7.30081 10.8288 7.30081 10.8296 7.30081 10.8299C7.85373 10.8299 8.40704 10.8374 8.95957 10.8257C9.13021 10.8221 9.17667 10.8627 9.17511 11.0385C9.16574 12.1314 9.17277 13.2244 9.16886 14.3173C9.16808 14.5864 9.24462 14.8183 9.44962 14.9956C9.70929 15.2201 10.0107 15.2701 10.3231 15.1373C10.6515 14.9979 10.8276 14.7347 10.8284 14.3732C10.8311 13.2673 10.8354 12.1611 10.8249 11.0553C10.8229 10.8592 10.8819 10.8245 11.0635 10.826C12.1498 10.8346 13.2361 10.8315 14.3228 10.8296C14.7246 10.8288 15.0225 10.6343 15.1514 10.2993C15.3646 9.74481 14.9648 9.17588 14.3486 9.17275C13.249 9.16729 12.1498 9.16689 11.0502 9.17549C10.8721 9.17705 10.8245 9.13175 10.8261 8.95213C10.835 7.85918 10.8288 6.76623 10.8311 5.67328C10.8319 5.29685 10.673 5.01922 10.3298 4.86498C9.77996 4.6182 9.17745 5.01805 9.17316 5.63774C9.16574 6.74358 9.16574 7.84981 9.1755 8.95565C9.17706 9.14308 9.11771 9.17588 8.94707 9.1747C7.87364 9.16729 6.80021 9.1708 5.72678 9.17119C5.61667 9.17119 5.50577 9.16807 5.398 9.1997C4.99112 9.31996 4.74863 9.70107 4.80603 10.1329C4.85718 10.5176 5.19339 10.8202 5.603 10.8264C6.1688 10.835 6.73461 10.8284 7.30081 10.8284Z" fill="black"/>
</svg>
