<svg width="25" height="34" viewBox="0 0 25 34" fill="none" xmlns="http://www.w3.org/2000/svg">
<path d="M21.1614 33.7162C15.3651 33.7162 9.56884 33.7162 3.77255 33.7162C3.7441 33.7015 3.71738 33.6869 3.68291 33.6852C2.15389 33.605 1.18253 32.7095 0.472322 31.4589C0.160314 30.9098 0 30.3074 0 29.667C0.000861902 21.3341 -0.0017238 13.0004 0.00258571 4.6675C0.00344761 3.0678 1.20235 1.37072 2.70034 0.816516C3.06837 0.680336 3.4614 0.701883 3.83719 0.619141C7.71575 0.619141 11.5943 0.619141 15.4729 0.619141C15.6513 0.839788 15.6237 1.10525 15.6246 1.36124C15.6271 4.02021 15.6263 6.68004 15.6263 9.339C15.6263 10.1621 15.6271 10.1621 16.4485 10.163C18.8498 10.163 21.2502 10.1638 23.6515 10.1621C24.0281 10.1621 24.4048 10.1604 24.7771 10.2285C24.9374 10.2802 24.9762 10.4086 24.9865 10.5569C24.9986 10.7293 24.9977 10.9008 24.9977 11.0732C24.9977 17.2185 25.0046 23.3639 24.9943 29.5084C24.9909 31.3115 24.079 32.5716 22.5362 33.4206C22.1087 33.655 21.6217 33.6274 21.1614 33.7162Z" fill="#DAECFC"/>
<path d="M15.5366 0.619141C16.439 1.57154 17.3379 2.52825 18.2447 3.47635C20.3727 5.70092 22.5042 7.92204 24.6339 10.1457C24.6857 10.2 24.7305 10.2595 24.7787 10.3173C21.819 10.3173 18.8592 10.3173 15.8994 10.3173C15.478 10.3173 15.4771 10.3164 15.4771 9.88631C15.4754 6.79726 15.4736 3.7082 15.4719 0.619141C15.4935 0.619141 15.515 0.619141 15.5366 0.619141Z" fill="#C7E5FF"/>
<path d="M4.11503 21.488C4.11503 20.6691 4.11417 19.8512 4.11589 19.0324C4.11589 18.91 4.07538 18.7557 4.28741 18.7626C5.12518 18.7919 5.96984 18.6738 6.80071 18.8402C8.24785 19.1307 9.04166 20.2227 8.92875 21.7301C8.82188 23.1566 7.8643 24.1245 6.43268 24.2073C5.73454 24.2478 5.03295 24.2176 4.33395 24.2331C4.12882 24.2374 4.11244 24.1366 4.1133 23.9754C4.11761 23.1463 4.11503 22.3171 4.11503 21.488Z" fill="#7BB6ED"/>
<path d="M12.2532 18.7002C13.889 18.6976 15.0836 19.8715 15.0871 21.4841C15.0905 23.1045 13.9089 24.2836 12.2756 24.2896C10.6181 24.2965 9.40715 23.1235 9.40284 21.5066C9.39853 19.8853 10.5992 18.7028 12.2532 18.7002Z" fill="#7BB6ED"/>
<path d="M18.4944 18.7013C19.0512 18.6996 19.664 18.8582 20.1837 19.2969C20.5242 19.5848 20.7379 19.9476 20.8388 20.3812C20.8784 20.5518 20.8405 20.6432 20.6483 20.6622C20.4785 20.6794 20.3113 20.7311 20.1432 20.7639C19.9536 20.8001 19.7545 20.8828 19.5744 20.8526C19.3804 20.8208 19.4063 20.5622 19.3089 20.4165C18.7969 19.6468 17.6118 19.7192 17.1688 20.5734C16.8585 21.1715 16.8637 21.8042 17.1636 22.4075C17.3998 22.8816 17.8204 23.1134 18.3487 23.1048C18.8452 23.097 19.2175 22.8686 19.3951 22.3903C19.4459 22.2541 19.502 22.2351 19.6287 22.2653C19.9734 22.3489 20.319 22.4299 20.6673 22.4963C20.8526 22.5316 20.8517 22.6101 20.7991 22.7643C20.5621 23.459 20.076 23.9021 19.3985 24.133C18.7616 24.3494 18.1065 24.3589 17.4593 24.1744C16.2414 23.8279 15.5389 22.8178 15.5588 21.4655C15.5812 19.7882 16.7094 18.6858 18.4944 18.7013Z" fill="#7BB6ED"/>
<path d="M5.49314 21.483C5.49314 21.052 5.50435 20.6211 5.48883 20.1901C5.48108 19.9841 5.55434 19.9195 5.7474 19.9453C5.83187 19.9565 5.91979 19.9471 6.00598 19.9497C6.95062 19.9815 7.5031 20.5073 7.52637 21.3951C7.55223 22.4 7.08335 22.9439 6.1094 23.0387C5.49401 23.0982 5.49401 23.0982 5.49401 22.4854C5.49314 22.151 5.49314 21.8165 5.49314 21.483Z" fill="#DAECFC"/>
<path d="M13.6896 21.5417C13.6603 22.6415 12.8105 23.3285 11.8271 23.0475C11.0962 22.8389 10.6635 22.0011 10.8273 21.1116C10.9712 20.3299 11.6297 19.8179 12.3968 19.8895C13.1734 19.9619 13.7129 20.6505 13.6896 21.5417Z" fill="#DAECFC"/>
</svg>
