<svg width="24" height="24" viewBox="0 0 24 24" fill="none" xmlns="http://www.w3.org/2000/svg">
<path d="M23.5433 20.1248C23.2616 20.7268 22.9994 20.8531 22.3488 20.7171C20.3484 20.2898 18.3286 20.0762 16.2796 20.2219C15.4834 20.2801 14.6968 20.4161 13.9005 20.5229C13.9976 20.4355 14.1141 20.3287 14.2404 20.2316C15.2212 19.4547 16.3476 18.9692 17.5712 18.7458C18.3674 18.6002 19.1831 18.5322 19.9988 18.4739C20.8631 18.4157 21.5137 18.0467 21.9118 17.2795C22.0866 16.9396 22.1255 16.5706 22.1255 16.1919C22.1255 12.9194 22.1255 9.6469 22.1255 6.36468C22.1255 6.26758 22.1255 6.17047 22.1255 6.08307C22.9218 5.98597 23.2714 6.04423 23.553 6.68514C23.5433 11.1618 23.5433 15.6384 23.5433 20.1248Z" fill="#CBCBCB"/>
<path d="M11.3855 19.882C11.3272 19.8335 11.2786 19.8043 11.2495 19.7752C9.85116 18.406 8.15179 17.6874 6.24849 17.3864C5.54932 17.2795 4.83073 17.2407 4.12185 17.1922C3.5392 17.1533 3.21875 16.8426 3.21875 16.2502C3.21875 12.2008 3.21875 8.16119 3.21875 4.11183C3.21875 3.49034 3.57805 3.16989 4.19953 3.18931C5.35511 3.21844 6.50097 3.3641 7.59828 3.74282C9.08402 4.25749 10.327 5.10232 11.1912 6.4424C11.3078 6.61719 11.3952 6.85996 11.3952 7.06388C11.4049 11.288 11.4049 15.5122 11.4049 19.7461C11.3952 19.7849 11.3855 19.8238 11.3855 19.882Z" fill="#CBCBCB"/>
<path d="M12.6672 19.9015C12.6672 19.7558 12.6672 19.6684 12.6672 19.581C12.6672 15.5414 12.6769 11.5017 12.6575 7.46204C12.6575 6.85997 12.8614 6.39386 13.2207 5.95688C14.3568 4.55853 15.862 3.79139 17.5905 3.45152C18.3674 3.29614 19.1636 3.2573 19.9502 3.18932C20.4843 3.15048 20.8436 3.51949 20.8436 4.05358C20.8436 8.14179 20.8436 12.2203 20.8436 16.3085C20.8436 16.8523 20.5037 17.1825 19.9308 17.1922C18.8141 17.2116 17.7167 17.3378 16.6486 17.6389C15.192 18.037 13.8907 18.7168 12.8128 19.7849C12.774 19.8141 12.7352 19.8432 12.6672 19.9015Z" fill="#CBCBCB"/>
<path d="M1.93687 6.04481C1.93687 6.16134 1.93687 6.25845 1.93687 6.35555C1.93687 9.63777 1.93687 12.92 1.93687 16.2022C1.93687 16.9402 2.16993 17.5617 2.76228 18.0278C3.15071 18.3386 3.60711 18.4551 4.10236 18.4648C5.0443 18.4842 5.96682 18.5813 6.87962 18.8144C8.0352 19.1154 9.09367 19.5912 10.0065 20.3778C10.055 20.4167 10.0939 20.4555 10.1424 20.4943C10.1521 20.5041 10.1618 20.5235 10.1813 20.5623C9.99676 20.5235 9.84139 20.4846 9.67631 20.4555C9.51122 20.4264 9.35585 20.3972 9.19077 20.3681C7.78272 20.135 6.36496 20.0865 4.9569 20.2419C3.83046 20.3584 2.72344 20.5526 1.60671 20.7371C0.946381 20.8439 0.509399 20.504 0.509399 19.8437C0.509399 15.5516 0.509399 11.2498 0.509399 6.95762C0.509399 6.35556 0.829853 6.0351 1.44163 6.02539C1.60671 6.04481 1.76208 6.04481 1.93687 6.04481Z" fill="#CBCBCB"/>
</svg>
