<svg width="24" height="24" viewBox="0 0 24 24" fill="none" xmlns="http://www.w3.org/2000/svg">
<g clip-path="url(#clip0_8989_88978)">
<path d="M17.2651 23.4969C17.1645 23.358 17.0255 23.2287 16.9776 23.0706C16.8195 22.5436 16.695 22.0071 16.5513 21.4609C18.7118 20.8861 20.858 20.3112 23.0234 19.7363C23.1527 20.2298 23.2773 20.7088 23.4066 21.1879C23.4306 21.2741 23.4641 21.3508 23.4929 21.4322C23.4929 21.5232 23.4929 21.6095 23.4929 21.7005C23.3875 21.8777 23.2198 21.9544 23.0282 22.0071C21.7155 22.352 20.4077 22.6969 19.0951 23.0514C18.5729 23.1904 18.0555 23.3484 17.5333 23.4969C17.4423 23.4969 17.3561 23.4969 17.2651 23.4969Z" fill="#CBCBCB"/>
<path d="M0.814073 23.4972C0.603286 23.3774 0.536218 23.1954 0.541008 22.9559C0.55059 22.381 0.545799 21.8109 0.545799 21.2217C2.5866 21.2217 4.61303 21.2217 6.6682 21.2217C6.6682 21.5283 6.6682 21.8349 6.6682 22.1367C6.6682 22.4002 6.65862 22.6589 6.6682 22.9223C6.67778 23.1571 6.62987 23.3631 6.4143 23.502C4.55075 23.4972 2.68241 23.4972 0.814073 23.4972Z" fill="#CBCBCB"/>
<path d="M7.71737 23.4971C7.497 23.4013 7.42993 23.2241 7.42993 22.9893C7.43951 22.4001 7.43472 21.8156 7.43472 21.2168C9.09706 21.2168 10.7402 21.2168 12.4074 21.2168C12.4074 21.5282 12.4074 21.83 12.4074 22.1366C12.4074 22.4049 12.4026 22.6731 12.4074 22.9414C12.4122 23.1714 12.3595 23.3678 12.1583 23.4971C10.678 23.4971 9.19767 23.4971 7.71737 23.4971Z" fill="#CBCBCB"/>
<path d="M19.4304 6.00147C17.265 6.58114 15.1284 7.15122 12.9678 7.72609C12.7954 7.07457 12.6277 6.43742 12.46 5.80027C12.4457 5.80027 12.4313 5.80027 12.4169 5.80506C12.4169 10.1645 12.4169 14.5192 12.4169 18.893C10.745 18.893 9.10662 18.893 7.45386 18.893C7.45386 14.1886 7.45386 9.48904 7.45386 4.77508C9.09225 4.77508 10.7354 4.77508 12.3978 4.77508C12.3978 4.95233 12.3978 5.12479 12.3978 5.30204C13.1116 4.9667 13.8685 4.84694 14.5967 4.64573C15.8039 4.31039 17.0159 3.999 18.2279 3.67803C18.6926 3.55347 18.822 3.63012 18.9465 4.10439C19.095 4.67447 19.2435 5.24456 19.3921 5.81464C19.4064 5.86255 19.416 5.92482 19.4304 6.00147Z" fill="#CBCBCB"/>
<path d="M6.64908 18.8982C4.60828 18.8982 2.58664 18.8982 0.55542 18.8982C0.55542 14.6969 0.55542 10.5099 0.55542 6.30371C2.57706 6.30371 4.60349 6.30371 6.64908 6.30371C6.64908 10.4907 6.64908 14.6825 6.64908 18.8982ZM3.59746 11.2572C4.07652 11.2572 4.55558 11.2572 5.02985 11.2572C5.37957 11.2572 5.51849 11.1183 5.51849 10.7686C5.51849 9.82002 5.51849 8.87148 5.51849 7.92294C5.51849 7.57322 5.38436 7.43909 5.02985 7.43909C4.08131 7.4343 3.13277 7.4343 2.18423 7.43909C1.82493 7.43909 1.70038 7.56843 1.70038 7.92773C1.69559 8.87627 1.69559 9.82481 1.70038 10.7734C1.70038 11.1279 1.83451 11.262 2.18902 11.262C2.65371 11.262 3.12798 11.2572 3.59746 11.2572Z" fill="#CBCBCB"/>
<path d="M22.2281 16.6799C20.0628 17.2595 17.9214 17.8296 15.7512 18.4093C15.0183 15.602 14.2901 12.8139 13.5571 9.99699C15.7177 9.42211 17.8591 8.84724 20.034 8.26758C20.767 11.0701 21.4952 13.8678 22.2281 16.6799Z" fill="#CBCBCB"/>
<path d="M6.66817 5.51336C4.61779 5.51336 2.59615 5.51336 0.555351 5.51336C0.555351 4.9816 0.540979 4.45464 0.569723 3.92767C0.574513 3.82228 0.742185 3.7073 0.857159 3.63065C0.919437 3.58754 1.02962 3.60191 1.12064 3.60191C2.77819 3.60191 4.43575 3.60191 6.0933 3.60191C6.55799 3.60191 6.67296 3.71688 6.67296 4.18636C6.66817 4.6271 6.66817 5.06783 6.66817 5.51336Z" fill="#CBCBCB"/>
<path d="M16.3549 20.7236C16.2159 20.1966 16.0866 19.6936 15.9429 19.1523C18.0986 18.5774 20.2496 18.0025 22.4198 17.4229C22.5587 17.9546 22.6928 18.4672 22.8318 18.9942C20.6712 19.569 18.5298 20.1439 16.3549 20.7236Z" fill="#CBCBCB"/>
<path d="M7.44426 2.05902C7.44426 1.6614 7.42989 1.26378 7.44905 0.875742C7.45863 0.660165 7.6263 0.554771 7.885 0.549981C8.33052 0.54519 8.78084 0.549981 9.22637 0.549981C10.1126 0.549981 11.0037 0.549981 11.8899 0.549981C12.2684 0.549981 12.3978 0.679327 12.4025 1.06258C12.4073 1.38834 12.4025 1.71889 12.4025 2.06381C10.745 2.05902 9.10181 2.05902 7.44426 2.05902Z" fill="#CBCBCB"/>
<path d="M7.44434 3.98517C7.44434 3.60192 7.44434 3.23783 7.44434 2.85938C9.08752 2.85938 10.7259 2.85938 12.3835 2.85938C12.3835 3.22825 12.3835 3.60192 12.3835 3.98517C10.7403 3.98517 9.10668 3.98517 7.44434 3.98517Z" fill="#CBCBCB"/>
<path d="M19.6316 6.74414C19.7034 7.00762 19.7657 7.25195 19.8376 7.5298C17.6818 8.10467 15.5404 8.67476 13.3654 9.25921C13.2984 9.00052 13.2313 8.74662 13.1547 8.47355C15.3248 7.8891 17.4662 7.31901 19.6316 6.74414Z" fill="#CBCBCB"/>
<path d="M0.55542 20.4311C0.55542 20.1772 0.55542 19.9473 0.55542 19.6934C2.58664 19.6934 4.61307 19.6934 6.65387 19.6934C6.65387 19.9377 6.65387 20.1772 6.65387 20.4311C4.61786 20.4311 2.59622 20.4311 0.55542 20.4311Z" fill="#CBCBCB"/>
<path d="M7.44434 20.4311C7.44434 20.1772 7.44434 19.9425 7.44434 19.6934C9.0923 19.6934 10.7355 19.6934 12.3882 19.6934C12.3882 19.9377 12.3882 20.182 12.3882 20.4311C10.7403 20.4311 9.10668 20.4311 7.44434 20.4311Z" fill="#CBCBCB"/>
</g>
<defs>
<clipPath id="clip0_8989_88978">
<rect width="24" height="24" fill="white"/>
</clipPath>
</defs>
</svg>
