<svg width="16" height="16" viewBox="0 0 16 16" fill="none" xmlns="http://www.w3.org/2000/svg">
<path d="M9.29289 2.6259C9.68342 2.23538 10.3166 2.23538 10.7071 2.6259C11.0976 3.01643 11.0976 3.64959 10.7071 4.04011L9.29289 2.6259ZM5.33333 7.99967L4.62623 8.70678C4.2357 8.31626 4.2357 7.68309 4.62623 7.29257L5.33333 7.99967ZM10.7071 11.9592C11.0976 12.3498 11.0976 12.9829 10.7071 13.3734C10.3166 13.764 9.68342 13.764 9.29289 13.3734L10.7071 11.9592ZM10.7071 4.04011L6.04044 8.70678L4.62623 7.29257L9.29289 2.6259L10.7071 4.04011ZM6.04044 7.29257L10.7071 11.9592L9.29289 13.3734L4.62623 8.70678L6.04044 7.29257Z" fill="#333333"/>
</svg>
