<svg width="16" height="16" viewBox="0 0 16 16" fill="none" xmlns="http://www.w3.org/2000/svg">
<path d="M2.62627 9.29289C2.23574 9.68342 2.23574 10.3166 2.62627 10.7071C3.01679 11.0976 3.64996 11.0976 4.04048 10.7071L2.62627 9.29289ZM8.00004 5.33333L8.70715 4.62623C8.31662 4.2357 7.68346 4.2357 7.29293 4.62623L8.00004 5.33333ZM11.9596 10.7071C12.3501 11.0976 12.9833 11.0976 13.3738 10.7071C13.7643 10.3166 13.7643 9.68342 13.3738 9.29289L11.9596 10.7071ZM4.04048 10.7071L8.70715 6.04044L7.29293 4.62623L2.62627 9.29289L4.04048 10.7071ZM7.29293 6.04044L11.9596 10.7071L13.3738 9.29289L8.70715 4.62623L7.29293 6.04044Z" fill="#B8B8B8"/>
</svg>
