<svg width="21" height="21" viewBox="0 0 21 21" fill="none" xmlns="http://www.w3.org/2000/svg">
<path d="M17.8874 20.3821C13.339 20.3821 8.79062 20.3821 4.24226 20.3821C4.22069 20.371 4.19971 20.3533 4.1764 20.3492C3.01425 20.1285 2.25249 19.2202 2.25133 18.0201C2.24725 12.9879 2.24667 7.95629 2.25133 2.92409C2.25249 1.55434 3.2532 0.562104 4.61468 0.561517C8.31679 0.559756 12.0189 0.56093 15.7216 0.56093C16.2479 0.56093 16.5439 0.857426 16.5445 1.38583C16.5457 2.09566 16.5451 2.8049 16.5451 3.51473C16.5451 3.58284 16.5451 3.65036 16.5451 3.73079C16.7602 3.73079 16.9455 3.73079 17.1303 3.73079C17.2905 3.73079 17.4502 3.73079 17.6105 3.73079C18.1846 3.73197 18.4568 4.00556 18.4568 4.58446C18.4574 9.54563 18.4544 14.5068 18.4609 19.4674C18.462 19.9118 18.3204 20.2312 17.8874 20.3821ZM10.5315 11.3722C10.5315 9.2826 10.5315 7.23003 10.5315 5.18274C9.13216 5.18274 7.74678 5.18274 6.36607 5.18274C6.36607 7.2447 6.36607 9.29141 6.36607 11.3634C6.4296 11.3146 6.47448 11.2823 6.51761 11.2465C6.96347 10.879 7.40933 10.5114 7.85402 10.1421C8.30571 9.76756 8.59013 9.76639 9.04065 10.1398C9.52906 10.5455 10.0186 10.9488 10.5315 11.3722ZM15.1119 1.99761C15.0268 1.99761 14.9639 1.99761 14.9004 1.99761C11.4943 1.99761 8.08832 1.99761 4.68229 1.9982C4.61177 1.9982 4.54125 1.99761 4.47131 2.00642C4.11695 2.05045 3.86109 2.23187 3.7387 2.57475C3.52538 3.17127 3.95551 3.7302 4.631 3.7302C8.06909 3.73197 11.5072 3.73079 14.9453 3.73079C15 3.73079 15.0554 3.72316 15.1119 3.71905C15.1119 3.14191 15.1119 2.58238 15.1119 1.99761Z" fill="white"/>
</svg>
