<svg width="18" height="18" viewBox="0 0 18 18" fill="none" xmlns="http://www.w3.org/2000/svg">
<path d="M15.4309 16.477C11.137 16.477 6.8432 16.477 2.5454 16.477C2.50972 16.4653 2.47007 16.4536 2.43439 16.4458C1.94673 16.3248 1.61765 16.028 1.45113 15.5595C1.42338 15.4853 1.40752 15.4111 1.3877 15.3369C1.3877 13.4666 1.3877 11.5964 1.3877 9.72607C1.39562 9.71435 1.40355 9.69874 1.40752 9.68702C1.62162 8.91783 2.06567 8.58594 2.87844 8.58594C5.34056 8.58594 7.80664 8.58594 10.2688 8.58594C11.9221 8.58594 13.5714 8.58594 15.2247 8.58594C15.9859 8.58594 16.5806 9.14819 16.5846 9.88225C16.5925 11.651 16.5886 13.4198 16.5846 15.1846C16.5846 15.7352 16.2238 16.2154 15.6965 16.399C15.6093 16.4302 15.5181 16.4497 15.4309 16.477ZM13.0005 11.2137C13.4366 11.2137 13.8569 11.2137 14.2771 11.2137C14.5665 11.2137 14.7688 11.038 14.7727 10.7803C14.7767 10.5187 14.5745 10.3352 14.2771 10.3352C13.7221 10.3352 13.171 10.3352 12.6159 10.3352C12.2789 10.3352 12.1044 10.507 12.1044 10.8389C12.1044 11.4519 12.1044 12.0649 12.1044 12.6818C12.1044 13.2089 12.1044 13.7321 12.1044 14.2593C12.1044 14.517 12.2789 14.7161 12.5247 14.7161C13.1313 14.7239 13.7419 14.7239 14.3485 14.7161C14.5784 14.7122 14.7608 14.5248 14.7727 14.3061C14.7846 14.0914 14.63 13.8961 14.4119 13.8532C14.3564 13.8415 14.293 13.8454 14.2335 13.8454C13.8251 13.8454 13.4168 13.8454 13.0005 13.8454C13.0005 13.5486 13.0005 13.2636 13.0005 12.9668C13.4406 12.9668 13.8688 12.9668 14.2969 12.9668C14.5745 12.9668 14.7727 12.7794 14.7727 12.5295C14.7727 12.2796 14.5745 12.0922 14.3009 12.0922C13.9163 12.0883 13.5278 12.0922 13.1432 12.0922C13.0956 12.0922 13.048 12.0883 13.0005 12.0844C13.0005 11.7916 13.0005 11.5105 13.0005 11.2137ZM9.89606 12.4007C9.88417 12.4007 9.87228 12.4007 9.86038 12.3968C9.84452 12.346 9.83263 12.2953 9.81677 12.2445C9.68593 11.7252 9.5551 11.2059 9.42029 10.6866C9.35289 10.4328 9.11897 10.2883 8.88109 10.3469C8.63131 10.4094 8.49254 10.6397 8.55598 10.9013C8.8454 12.0532 9.13879 13.2011 9.42822 14.353C9.48769 14.5833 9.65421 14.72 9.86435 14.72C10.0824 14.72 10.2489 14.5833 10.3124 14.3452C10.6018 13.205 10.8912 12.0649 11.1806 10.9209C11.252 10.6397 11.1132 10.4055 10.8555 10.343C10.6137 10.2883 10.3877 10.4406 10.3203 10.7061C10.2688 10.9091 10.2172 11.1122 10.1657 11.3152C10.0824 11.6823 9.98725 12.0415 9.89606 12.4007ZM4.0877 13.8454C4.0877 13.7712 4.0877 13.7126 4.0877 13.654C4.0877 12.7013 4.0877 11.7447 4.0877 10.792C4.0877 10.5304 3.89342 10.3391 3.64364 10.3391C3.39386 10.3391 3.20355 10.5304 3.19959 10.792C3.19562 10.9521 3.19959 11.1122 3.19959 11.2723C3.19959 12.264 3.19959 13.2597 3.19959 14.2514C3.19959 14.5248 3.378 14.7161 3.63968 14.72C4.23836 14.7239 4.83703 14.7239 5.43571 14.72C5.62602 14.72 5.76479 14.6185 5.83615 14.4428C5.9551 14.1538 5.74496 13.8493 5.41589 13.8454C4.97977 13.8415 4.54364 13.8454 4.0877 13.8454ZM7.65201 12.5452C7.65201 11.9712 7.65201 11.3972 7.65201 10.8232C7.65201 10.5382 7.46963 10.3391 7.21192 10.3391C6.94628 10.3352 6.76391 10.5343 6.76391 10.8311C6.76391 11.9634 6.76391 13.0996 6.76391 14.2319C6.76391 14.5248 6.94628 14.7278 7.21192 14.7239C7.47756 14.7239 7.65598 14.5248 7.65598 14.228C7.65201 13.6658 7.65201 13.1074 7.65201 12.5452Z" fill="#777777"/>
<path d="M4.09167 4.47856C4.10753 3.53366 4.40489 2.58485 5.03132 1.73756C5.20974 1.49939 5.47141 1.44472 5.68551 1.6009C5.89564 1.75318 5.9234 2.01088 5.75291 2.24906C4.71811 3.70936 4.71811 5.46251 5.74895 6.915C5.9234 7.15709 5.89168 7.4226 5.67362 7.57097C5.45555 7.71934 5.20181 7.66077 5.01943 7.41869C4.42075 6.59873 4.09167 5.59526 4.09167 4.47856Z" fill="#777777"/>
<path d="M13.8846 4.43501C13.8687 5.6298 13.5595 6.59032 12.9291 7.44151C12.8141 7.59769 12.6595 7.67188 12.4652 7.63674C12.2788 7.6016 12.1599 7.48056 12.1163 7.30095C12.0766 7.14477 12.1401 7.01592 12.2313 6.89487C12.6079 6.37947 12.8458 5.80941 12.941 5.18468C13.0995 4.13436 12.8656 3.17383 12.2551 2.30312C12.2352 2.27579 12.2154 2.24846 12.1956 2.22112C12.0449 1.99856 12.0846 1.74477 12.2907 1.6003C12.4929 1.45583 12.7586 1.49878 12.9172 1.70963C13.3652 2.29921 13.6586 2.95908 13.7894 3.68533C13.8449 3.97817 13.8647 4.27882 13.8846 4.43501Z" fill="#777777"/>
<path d="M10.3243 4.5913C10.3203 5.31754 9.70977 5.90323 8.97233 5.89542C8.24281 5.88761 7.65206 5.29021 7.65603 4.56787C7.65999 3.84162 8.27056 3.25594 9.00801 3.26375C9.73753 3.27156 10.3283 3.86896 10.3243 4.5913Z" fill="#777777"/>
<path d="M12.1084 4.57189C12.1005 5.33328 11.8507 6.00486 11.3511 6.58273C11.1648 6.79748 10.8952 6.83263 10.6969 6.66863C10.4947 6.50464 10.4829 6.23913 10.6692 6.02048C11.4066 5.13414 11.4066 4.03306 10.6652 3.13501C10.4868 2.92026 10.4987 2.66256 10.689 2.49466C10.8873 2.32677 11.1569 2.3541 11.3432 2.56885C11.8467 3.14673 12.0965 3.81831 12.1084 4.57189Z" fill="#777777"/>
<path d="M5.86792 4.56419C5.87981 3.81061 6.13356 3.14293 6.63708 2.56896C6.81946 2.36202 7.0851 2.33469 7.28334 2.49477C7.48157 2.65486 7.50536 2.92427 7.31902 3.13122C6.57761 3.95508 6.57365 5.20844 7.32298 6.04011C7.5014 6.23924 7.47761 6.50475 7.2873 6.66484C7.09303 6.82883 6.81946 6.8054 6.64105 6.59846C6.12959 6.01668 5.87585 5.33729 5.86792 4.56419Z" fill="#777777"/>
</svg>
