<svg width="24" height="23" viewBox="0 0 24 23" fill="none" xmlns="http://www.w3.org/2000/svg">
<path d="M18.0477 0.0927734C18.4016 0.177461 18.7643 0.235684 19.108 0.351248C21.1724 1.04507 22.4833 3.10185 22.2617 5.27683C22.0428 7.42667 20.3816 9.15395 18.246 9.453C15.7069 9.80808 13.3836 8.08476 12.9585 5.53045C12.5444 3.04053 14.2491 0.627808 16.743 0.173492C16.8709 0.150114 16.9975 0.11968 17.1246 0.0927734C17.4323 0.0927734 17.74 0.0927734 18.0477 0.0927734Z" fill="white"/>
<path d="M10.661 22.6763C10.2192 22.5299 9.74882 22.4386 9.34175 22.2255C8.39485 21.7298 7.82909 20.9164 7.58203 19.8613C9.87938 19.8613 12.157 19.8613 14.4987 19.8613C14.38 20.1723 14.2974 20.4749 14.1549 20.7453C13.5958 21.8092 12.7183 22.443 11.5314 22.6379C11.4892 22.645 11.4492 22.6635 11.4083 22.6768C11.1591 22.6763 10.9098 22.6763 10.661 22.6763Z" fill="white"/>
<path d="M11.6346 2.01475C10.714 4.20694 10.7923 6.33561 12.0733 8.33857C13.349 10.3336 15.2327 11.3053 17.5661 11.3984C17.6461 11.8628 17.6975 12.3304 17.8105 12.782C18.1217 14.0277 18.7636 15.0805 19.7342 15.9221C20.1896 16.3169 20.4587 16.7924 20.398 17.4055C20.3118 18.2722 19.6366 18.8628 18.7051 18.914C18.6392 18.9175 18.5732 18.9166 18.5073 18.9166C13.5178 18.9166 8.52833 18.9193 3.5393 18.9105C3.25268 18.91 2.9476 18.8659 2.6834 18.7609C1.53341 18.3053 1.27844 16.8687 2.20116 16.0425C2.96211 15.3611 3.57315 14.5781 3.96923 13.6329C4.27915 12.8936 4.44884 12.1222 4.45807 11.3203C4.46818 10.4165 4.45939 9.51229 4.46247 8.60807C4.47302 5.55797 6.41078 3.01204 9.33984 2.1978C10.0533 1.99931 10.7808 1.94991 11.5167 1.9949C11.5501 1.99711 11.5836 2.00593 11.6346 2.01475Z" fill="white"/>
</svg>
