<svg width="8" height="13" viewBox="0 0 8 13" fill="none" xmlns="http://www.w3.org/2000/svg">
<path d="M6.3085 1.69859e-08C6.77271 0.465525 7.23667 0.931538 7.70162 1.39608C7.80846 1.5028 7.59763 1.28301 7.71602 1.39608C6.18805 2.91846 4.2512 4.75021 2.73158 6.26451C4.25218 7.77955 6.16604 9.60668 7.70162 11.1366C7.62818 11.1993 7.37661 10.8139 7.70527 11.1332C7.19071 11.6467 6.82183 12.017 6.30825 12.5315C6.30015 12.5315 6.2918 12.5315 6.28369 12.5315C6.25225 12.495 6.22327 12.4561 6.18938 12.4223C4.16724 10.4063 2.14436 8.3907 0.120498 6.37587C0.0863577 6.34185 0.0406729 6.31982 0.000146464 6.29217C0.000392512 6.27503 0.000884608 6.25766 0.00113066 6.24052C0.041411 6.21262 0.0868493 6.18986 0.120744 6.15608C2.1446 4.14126 4.16724 2.1257 6.18987 0.10965C6.22376 0.0758741 6.2525 0.0367133 6.28369 0.000244731C6.29229 -2.38878e-08 6.30039 1.70826e-08 6.3085 1.69859e-08Z" fill="#888888"/>
</svg>
