<svg width="25" height="33" viewBox="0 0 25 33" fill="none" xmlns="http://www.w3.org/2000/svg">
<path d="M3.6385 0C7.52707 0 11.4156 0 15.3042 0C15.3059 3.09109 15.3119 6.18218 15.3034 9.27241C15.3025 9.57834 15.385 9.67545 15.6995 9.67459C18.6617 9.66342 21.6239 9.66772 24.5861 9.66686C24.7373 9.78029 24.6737 9.94443 24.6737 10.0854C24.6772 16.2168 24.6763 22.3483 24.6763 28.4807C24.6763 28.6414 24.6772 28.8038 24.6634 28.9636C24.5079 30.7408 23.603 31.9774 21.9745 32.6958C21.6523 32.8376 21.2991 32.8659 20.9768 33C15.1977 33 9.41851 33 3.63936 33C3.59381 32.8977 3.49069 32.9313 3.41421 32.9132C2.93039 32.7998 2.46806 32.6331 2.04956 32.3615C0.655687 31.4592 -0.00085851 30.1702 8.42479e-07 28.515C0.00601631 20.505 0.00257963 12.4941 0.00343899 4.4841C0.00343899 4.33371 0.00601568 4.18333 0.0154686 4.0338C0.123747 2.19479 1.39043 0.634202 3.16414 0.147809C3.32226 0.103122 3.501 0.116872 3.6385 0ZM10.0639 21.5887C10.0639 22.5116 10.0622 23.4354 10.0656 24.3583C10.0656 24.4735 10.0089 24.6299 10.2315 24.6222C11.0994 24.5921 11.9716 24.6909 12.8362 24.5637C14.4045 24.3326 15.3154 23.2799 15.3558 21.6772C15.3953 20.0977 14.5368 18.9917 13.0054 18.6832C12.1246 18.5053 11.2283 18.623 10.3397 18.5852C10.1008 18.5749 10.0579 18.6703 10.0596 18.8834C10.069 19.7849 10.0639 20.6863 10.0639 21.5887ZM4.77714 21.6067C4.77714 22.5296 4.7823 23.4526 4.77285 24.3755C4.77113 24.5732 4.82441 24.6359 5.02464 24.6256C5.36752 24.6084 5.71212 24.6067 6.05414 24.6256C6.27328 24.6376 6.32655 24.5594 6.32226 24.3541C6.31023 23.8281 6.32828 23.3022 6.31367 22.7763C6.30679 22.5365 6.35749 22.4257 6.62819 22.4446C6.94787 22.4669 7.27184 22.4532 7.59324 22.4351C8.68204 22.3732 9.41593 21.6127 9.42796 20.5445C9.43999 19.4721 8.7336 18.684 7.63621 18.6222C6.75881 18.5732 5.87711 18.6024 4.99714 18.5852C4.79605 18.5809 4.7737 18.6729 4.77456 18.837C4.78058 19.7608 4.77714 20.6838 4.77714 21.6067ZM16.1326 21.5981C16.1326 22.5211 16.1369 23.4449 16.1283 24.3678C16.1266 24.5551 16.1618 24.6368 16.3724 24.6256C16.7153 24.6076 17.0599 24.605 17.4028 24.6256C17.6408 24.6402 17.6855 24.5474 17.6812 24.3317C17.6683 23.6881 17.6829 23.0435 17.6726 22.399C17.67 22.2143 17.7293 22.1636 17.9089 22.167C18.4881 22.1773 19.0682 22.1661 19.6482 22.1739C19.8089 22.1756 19.8811 22.1378 19.8734 21.9608C19.8605 21.6712 19.8614 21.3807 19.8734 21.0911C19.8803 20.9227 19.8218 20.8659 19.6534 20.8694C19.2134 20.8788 18.7734 20.872 18.3326 20.872C17.6683 20.872 17.6777 20.872 17.6709 20.1913C17.6683 19.9696 17.7233 19.8992 17.9536 19.9035C18.6944 19.9181 19.4351 19.9035 20.1759 19.9129C20.3563 19.9155 20.4242 19.8657 20.4148 19.6792C20.401 19.4007 20.4002 19.1206 20.4148 18.8422C20.4251 18.6462 20.3641 18.5818 20.1621 18.5835C18.9058 18.5912 17.6502 18.5921 16.3939 18.5826C16.1773 18.5809 16.1258 18.6531 16.1275 18.8585C16.1378 19.7737 16.1326 20.6855 16.1326 21.5981Z" fill="#FCE2E2"/>
<path d="M15.3684 0C16.2604 0.94271 17.1473 1.88886 18.0444 2.82641C20.1816 5.05987 22.324 7.28903 24.4638 9.51991C24.5076 9.56631 24.5454 9.61787 24.5867 9.66686C21.6245 9.66686 18.6623 9.66256 15.7001 9.67459C15.3865 9.67545 15.3031 9.5792 15.304 9.27241C15.3126 6.18132 15.3065 3.09023 15.3048 0C15.3254 0 15.3469 0 15.3684 0Z" fill="#FFD6D6"/>
<path d="M10.0643 21.5883C10.0643 20.6868 10.0703 19.7845 10.06 18.883C10.0574 18.6699 10.1013 18.5754 10.3402 18.5848C11.2287 18.6227 12.125 18.5049 13.0059 18.6828C14.5372 18.9922 15.3957 20.0973 15.3562 21.6768C15.3158 23.2795 14.4058 24.3322 12.8366 24.5634C11.9721 24.6905 11.0998 24.5917 10.2319 24.6218C10.0093 24.6295 10.066 24.4731 10.066 24.358C10.0626 23.435 10.0643 22.5112 10.0643 21.5883ZM11.5673 21.5891C11.5673 21.9209 11.5673 22.2534 11.5673 22.5851C11.5673 23.3921 11.5673 23.3921 12.3923 23.2803C13.3342 23.1523 13.8248 22.5662 13.8137 21.5797C13.8034 20.6206 13.2938 20.0329 12.37 19.9254C12.1792 19.9031 11.9841 19.9246 11.7925 19.9074C11.6034 19.8902 11.5587 19.9667 11.563 20.1446C11.5742 20.6258 11.5673 21.1079 11.5673 21.5891Z" fill="#F29F9F"/>
<path d="M4.77782 21.6067C4.77782 20.6838 4.7804 19.7608 4.77524 18.8379C4.77438 18.6737 4.79673 18.5818 4.99781 18.5861C5.87779 18.6033 6.75949 18.5741 7.63689 18.623C8.73428 18.6849 9.44067 19.4729 9.42864 20.5454C9.41661 21.6136 8.68272 22.3741 7.59392 22.436C7.27252 22.454 6.94855 22.4678 6.62887 22.4454C6.35817 22.4265 6.30747 22.5374 6.31435 22.7771C6.32895 23.3022 6.31091 23.829 6.32294 24.3549C6.32809 24.5603 6.27481 24.6385 6.05482 24.6265C5.7128 24.6076 5.36734 24.6093 5.02531 24.6265C4.82508 24.6368 4.77095 24.5741 4.77352 24.3764C4.78384 23.4526 4.77782 22.5297 4.77782 21.6067ZM6.3195 20.5265C6.3195 20.6769 6.32122 20.8273 6.31864 20.9768C6.31692 21.0739 6.33755 21.1427 6.45786 21.1401C6.75777 21.1332 7.06026 21.1538 7.3576 21.1229C7.69876 21.0868 7.89727 20.8333 7.88954 20.5067C7.8818 20.1828 7.6661 19.9542 7.32494 19.9189C7.19776 19.906 7.06799 19.9112 6.93909 19.9112C6.31864 19.9103 6.31864 19.9103 6.3195 20.5265Z" fill="#F29F9F"/>
<path d="M16.1328 21.5983C16.1328 20.6856 16.1388 19.773 16.1285 18.8604C16.1259 18.6541 16.1775 18.5828 16.3949 18.5845C17.6513 18.594 18.9068 18.5931 20.1632 18.5854C20.3643 18.5836 20.4261 18.6481 20.4158 18.844C20.4012 19.1225 20.4021 19.4026 20.4158 19.681C20.4253 19.8675 20.3565 19.9174 20.1769 19.9148C19.4362 19.9062 18.6954 19.9208 17.9546 19.9053C17.7252 19.901 17.6702 19.9715 17.6719 20.1932C17.6788 20.8738 17.6693 20.8738 18.3336 20.8738C18.7736 20.8738 19.2144 20.8798 19.6544 20.8712C19.8229 20.8678 19.8804 20.9237 19.8744 21.093C19.8633 21.3826 19.8615 21.673 19.8744 21.9626C19.8822 22.1396 19.81 22.1783 19.6493 22.1757C19.0692 22.168 18.49 22.1792 17.91 22.1689C17.7303 22.1654 17.6711 22.217 17.6736 22.4009C17.6839 23.0445 17.6693 23.6891 17.6822 24.3336C17.6865 24.5493 17.6427 24.6412 17.4038 24.6275C17.0618 24.6068 16.7163 24.6086 16.3734 24.6275C16.1629 24.6386 16.1277 24.557 16.1294 24.3697C16.1371 23.445 16.1328 22.5221 16.1328 21.5983Z" fill="#F29F9F"/>
<path d="M11.5662 21.5897C11.5662 21.1076 11.5731 20.6255 11.5628 20.1443C11.5585 19.9673 11.6032 19.8899 11.7922 19.9071C11.9839 19.9252 12.1789 19.9037 12.3697 19.9252C13.2935 20.0317 13.8031 20.6204 13.8134 21.5794C13.8237 22.566 13.3339 23.152 12.3921 23.2801C11.5671 23.3918 11.5671 23.3918 11.5671 22.5849C11.5662 22.254 11.5662 21.9223 11.5662 21.5897Z" fill="#FCE2E2"/>
<path d="M6.3179 20.5265C6.3179 19.9103 6.31789 19.9103 6.93835 19.9112C7.06725 19.9112 7.19701 19.906 7.3242 19.9189C7.66536 19.9541 7.88106 20.1836 7.88879 20.5067C7.89653 20.8341 7.69801 21.0876 7.35685 21.1229C7.05952 21.1538 6.75703 21.1332 6.45711 21.14C6.3368 21.1426 6.31704 21.0739 6.3179 20.9768C6.31962 20.8264 6.3179 20.6769 6.3179 20.5265Z" fill="#FCE2E2"/>
</svg>
