<svg width="18" height="18" viewBox="0 0 18 18" fill="none" xmlns="http://www.w3.org/2000/svg">
<path d="M9.36412 16.9886C9.05543 16.9886 8.74679 16.9886 8.4381 16.9886C8.39839 16.9799 8.35901 16.9659 8.31893 16.9632C7.34914 16.8993 6.41902 16.6673 5.54918 16.2375C3.12551 15.04 1.6422 13.1097 1.12362 10.4462C1.06494 10.1448 1.03973 9.83685 0.999023 9.53195C0.999023 9.22257 0.999023 8.91314 0.999023 8.60375C1.00801 8.55929 1.02209 8.51521 1.02519 8.47034C1.10213 7.36497 1.38783 6.31436 1.92861 5.35038C3.38398 2.75608 5.60318 1.34008 8.56915 1.16071C10.1264 1.06652 11.5974 1.44062 12.9273 2.26322C15.3253 3.74634 16.6225 5.91535 16.7909 8.73497C16.8763 10.1638 16.5648 11.5261 15.8756 12.7823C14.65 15.0163 12.7799 16.3815 10.278 16.8637C9.97657 16.9217 9.66892 16.9477 9.36412 16.9886ZM6.64502 9.0615C6.64502 9.79833 6.64319 10.5352 6.64564 11.272C6.64729 11.7793 7.06049 12.0392 7.51253 11.8135C8.97825 11.0818 10.4422 10.3466 11.9064 9.61186C12.1327 9.49828 12.2897 9.32821 12.2852 9.06005C12.2809 8.80102 12.1321 8.63779 11.9066 8.52526C10.4455 7.79611 8.98653 7.06264 7.52582 6.33275C7.05532 6.09767 6.6463 6.35408 6.64535 6.8819C6.64402 7.60843 6.64502 8.33497 6.64502 9.0615Z" fill="#777777"/>
</svg>
