<svg width="12" height="12" viewBox="0 0 12 12" fill="none" xmlns="http://www.w3.org/2000/svg">
<path d="M5.9772 1.36275e-05H5.99657C7.12504 -0.00237231 8.23124 0.308589 9.18779 0.897085C10.1443 1.48558 10.9123 2.32768 11.4033 3.32639C11.8943 4.32511 12.0883 5.43983 11.9629 6.54217C11.8376 7.64451 11.3981 8.68964 10.6949 9.55719L11.5684 11.5517C11.5855 11.5903 11.5946 11.6319 11.5954 11.674C11.5961 11.7161 11.5883 11.7579 11.5726 11.7971C11.5568 11.8362 11.5333 11.872 11.5035 11.9022C11.4736 11.9324 11.438 11.9566 11.3987 11.9732C11.3406 11.9978 11.2766 12.0057 11.2142 11.9959L8.01094 11.4429C7.37081 11.6721 6.69445 11.7881 6.01317 11.7856C4.42315 11.7903 2.89637 11.1739 1.76869 10.0721C0.641003 8.97032 0.00479706 7.47333 2.70164e-05 5.91047C-0.00474303 4.34761 0.622313 2.84689 1.74325 1.73847C2.86419 0.630043 4.38718 0.00470221 5.9772 1.36275e-05Z" fill="#888888"/>
<path d="M5.58451 8.92295C5.59302 8.81714 5.64315 8.71874 5.72426 8.64867C5.80537 8.57859 5.91107 8.54235 6.01893 8.54763C6.12646 8.54327 6.23155 8.57987 6.3123 8.64979C6.39306 8.71971 6.44325 8.81756 6.45243 8.92295C6.44392 9.0286 6.39392 9.12686 6.31301 9.19691C6.2321 9.26696 6.12663 9.30332 6.01893 9.29828C5.91125 9.30287 5.80593 9.26638 5.72497 9.19644C5.64402 9.1265 5.59369 9.02851 5.58451 8.92295ZM5.58451 7.62473V6.09261C5.59186 5.98652 5.64153 5.88758 5.72271 5.81729C5.80389 5.74701 5.91001 5.71107 6.01801 5.71729C6.33964 5.7357 6.65567 5.62863 6.89745 5.41933C7.13923 5.21003 7.28722 4.91541 7.30927 4.59948C7.28699 4.28387 7.13903 3.98962 6.89748 3.78054C6.65593 3.57146 6.34026 3.46439 6.01893 3.48257C5.69745 3.46415 5.38154 3.5711 5.13979 3.7802C4.89804 3.98931 4.74995 4.2837 4.72767 4.59948C4.72032 4.70573 4.67053 4.80482 4.58914 4.87513C4.50776 4.94544 4.4014 4.98127 4.29325 4.9748C4.18495 4.98152 4.07834 4.9458 3.99676 4.87546C3.91518 4.80513 3.86525 4.7059 3.85791 4.59948C3.89513 4.07104 4.14297 3.57839 4.5476 3.22854C4.95223 2.87869 5.48096 2.6999 6.01893 2.73101C6.55684 2.70014 7.08544 2.87901 7.49001 3.22881C7.89459 3.57862 8.1425 4.07113 8.17995 4.59948C8.15531 5.05487 7.96908 5.48737 7.65363 5.82178C7.33818 6.15619 6.91347 6.37135 6.45335 6.42986V7.62654C6.446 7.7328 6.39621 7.83189 6.31482 7.9022C6.23344 7.97251 6.12708 8.00834 6.01893 8.00187C5.91078 8.00834 5.80442 7.97251 5.72304 7.9022C5.64166 7.83189 5.59186 7.7328 5.58451 7.62654V7.62473Z" fill="white" stroke="white" stroke-width="0.5"/>
</svg>
