<svg width="26" height="26" viewBox="0 0 26 26" fill="none" xmlns="http://www.w3.org/2000/svg">
<path d="M21.998 21.5395C21.4852 21.5395 20.9657 21.5462 20.4528 21.5329C20.2863 21.5262 20.2131 21.5861 20.1465 21.7393C19.587 23.0381 18.255 23.7973 16.843 23.6375C15.4843 23.4843 14.352 22.4187 14.0856 21.06C13.7792 19.4748 14.7317 17.9097 16.2902 17.4235C17.822 16.9439 19.4938 17.7032 20.1398 19.1884C20.2131 19.3616 20.293 19.4215 20.4795 19.4149C21.5252 19.4082 22.5708 19.4082 23.6165 19.4149C24.1626 19.4215 24.5822 19.7945 24.6622 20.3273C24.7421 20.8202 24.4357 21.3197 23.9495 21.4796C23.803 21.5262 23.6431 21.5395 23.4833 21.5462C22.9904 21.5395 22.4976 21.5395 21.998 21.5395Z" fill="#333333"/>
<path d="M3.90877 11.9616C4.43493 11.9616 4.95444 11.955 5.4806 11.9683C5.65377 11.975 5.74035 11.9217 5.80695 11.7552C6.3531 10.4831 7.69847 9.69714 9.03719 9.84366C10.4758 10.0102 11.6014 11.0359 11.8678 12.4279C12.1675 14.0063 11.2284 15.5848 9.6899 16.0644C8.13805 16.5506 6.47298 15.8046 5.82027 14.3127C5.74035 14.1262 5.6471 14.0729 5.45396 14.0796C4.41495 14.0863 3.37595 14.0863 2.33694 14.0796C1.86406 14.0796 1.49774 13.8065 1.34456 13.3869C1.19137 12.974 1.3046 12.5211 1.63761 12.228C1.84408 12.0416 2.09051 11.9616 2.37024 11.9616C2.88308 11.9683 3.39593 11.9616 3.90877 11.9616Z" fill="#333333"/>
<path d="M21.5052 2.39072C23.2768 2.4107 24.6888 3.82934 24.6822 5.58766C24.6755 7.35263 23.2169 8.79125 21.4586 8.77127C19.7003 8.75129 18.2816 7.30601 18.3016 5.55435C18.3216 3.78272 19.7469 2.3774 21.5052 2.39072Z" fill="#333333"/>
<path d="M8.71086 6.64026C6.59955 6.64026 4.4949 6.64026 2.38359 6.64026C1.6443 6.64026 1.14477 6.02085 1.31128 5.32818C1.41119 4.91524 1.68426 4.64883 2.0972 4.54893C2.21708 4.52229 2.34363 4.51562 2.47017 4.51562C6.63951 4.51562 10.8089 4.51562 14.9782 4.51562C15.1447 4.51562 15.3112 4.53561 15.4644 4.58889C15.9373 4.74874 16.2303 5.23494 16.1637 5.7278C16.0905 6.24064 15.6642 6.6336 15.1447 6.64692C14.6385 6.66024 14.1323 6.65358 13.6262 6.65358C11.9811 6.64026 10.3493 6.64026 8.71086 6.64026Z" fill="#333333"/>
<path d="M6.59948 21.5395C5.21414 21.5395 3.82214 21.5395 2.4368 21.5395C1.81739 21.5395 1.39113 21.1998 1.29123 20.647C1.18466 20.0476 1.62424 19.4748 2.23699 19.4149C2.27695 19.4082 2.31691 19.4082 2.36354 19.4082C5.1875 19.4082 8.01146 19.4082 10.8354 19.4082C11.4282 19.4082 11.8811 19.8478 11.9144 20.4339C11.941 20.98 11.5281 21.4529 10.962 21.5262C10.8487 21.5395 10.7289 21.5395 10.6156 21.5395C9.27692 21.5395 7.9382 21.5395 6.59948 21.5395Z" fill="#333333"/>
<path d="M19.3606 14.0789C17.9553 14.0789 16.55 14.0856 15.1513 14.0789C14.4054 14.0723 13.9125 13.4662 14.079 12.7668C14.1789 12.3273 14.5652 12.0009 15.0181 11.9676C15.0781 11.9609 15.1314 11.9609 15.1913 11.9609C17.9753 11.9609 20.7593 11.9609 23.5433 11.9609C24.1427 11.9609 24.5623 12.2873 24.6622 12.8135C24.7888 13.4528 24.3292 14.0523 23.6765 14.0723C23.1037 14.0922 22.5309 14.0789 21.9582 14.0789C21.0923 14.0856 20.2265 14.0789 19.3606 14.0789Z" fill="#333333"/>
</svg>
