<svg width="13" height="12" viewBox="0 0 13 12" fill="none" xmlns="http://www.w3.org/2000/svg">
<path fill-rule="evenodd" clip-rule="evenodd" d="M6.0173 12C2.69575 12 0 9.318 0 6C0 2.688 2.69575 0 6.0173 0C9.34487 0 12.0346 2.688 12.0346 6C12.0346 9.318 9.34487 12 6.0173 12ZM7.93689 8.22601C8.0091 8.26801 8.08732 8.29201 8.17157 8.29201C8.322 8.29201 8.47243 8.21401 8.55667 8.07001C8.68304 7.86001 8.61685 7.58401 8.40022 7.45201L6.25806 6.18001V3.40801C6.25806 3.15601 6.05348 2.95801 5.80677 2.95801C5.56006 2.95801 5.35547 3.15601 5.35547 3.40801V6.43801C5.35547 6.59401 5.43971 6.73801 5.57811 6.82201L7.93689 8.22601Z" fill="#888888"/>
</svg>
