<svg width="23" height="30" viewBox="0 0 23 30" fill="none" xmlns="http://www.w3.org/2000/svg">
<path d="M13.9991 0.0634766C14.8037 0.911441 15.6038 1.7625 16.4131 2.60582C18.341 4.61481 20.2737 6.61993 22.2039 8.6266C22.2435 8.66834 22.2776 8.71472 22.3148 8.75878C19.6426 8.75878 16.9705 8.75492 14.2983 8.76574C14.0153 8.76651 13.9401 8.67994 13.9409 8.40398C13.9487 5.62356 13.9433 2.84313 13.9417 0.0634766C13.9603 0.0634766 13.9797 0.0634766 13.9991 0.0634766Z" fill="#E2E2E2"/>
<path fill-rule="evenodd" clip-rule="evenodd" d="M13.9408 0.0634766H3.41727C3.33172 0.135981 3.22848 0.152597 3.12585 0.169114C3.07967 0.176546 3.03361 0.183957 2.98935 0.19643C1.38931 0.633939 0.246642 2.03768 0.148965 3.69187C0.140437 3.82637 0.138113 3.96164 0.138113 4.09691C0.137871 6.34804 0.138007 8.59925 0.138143 10.8505C0.138442 15.8046 0.138742 20.7588 0.13501 25.7127C0.134236 27.2014 0.726501 28.3609 1.9839 29.1725C2.36143 29.4168 2.77849 29.5668 3.21494 29.6688C3.23399 29.6733 3.25486 29.6742 3.27597 29.6752C3.33134 29.6777 3.3883 29.6803 3.41805 29.7469H19.058C19.1986 29.6886 19.3456 29.6525 19.4929 29.6164C19.6503 29.5778 19.8079 29.5391 19.958 29.4732C21.4271 28.827 22.2434 27.7147 22.3837 26.1162C22.3954 25.9804 22.3953 25.8425 22.3953 25.7058V25.7058L22.3953 25.6817L22.3953 22.9305V22.9207V22.9207V22.9206V22.9206C22.3955 18.3252 22.3956 13.7302 22.393 9.13523C22.393 9.1066 22.3959 9.0769 22.3989 9.04691V9.04688V9.04685V9.04683V9.0468C22.409 8.94402 22.4195 8.83775 22.3139 8.75878C21.6459 8.75898 20.9778 8.75888 20.3098 8.75878C18.3057 8.75849 16.3015 8.7582 14.2974 8.76574C14.0137 8.76651 13.9393 8.67917 13.94 8.40398C13.946 6.25614 13.9442 4.10784 13.9423 1.95944V1.95936V1.95929V1.95921V1.95914C13.9417 1.32726 13.9412 0.695367 13.9408 0.0634766ZM9.21336 20.1047L9.21355 19.4824C9.21355 19.2706 9.21387 19.0589 9.21418 18.8472C9.21508 18.2476 9.21598 17.6483 9.20968 17.049C9.20818 16.8638 9.24431 16.7775 9.44111 16.7802C9.24465 16.7783 9.20788 16.8639 9.21012 17.049C9.21692 17.6415 9.21585 18.2345 9.21478 18.8273C9.21439 19.0457 9.214 19.264 9.214 19.4823L9.2138 20.1046C9.21351 20.7276 9.21322 21.3509 9.21555 21.9737C9.21555 21.991 9.21412 22.0093 9.21268 22.0279C9.20548 22.1202 9.19796 22.2168 9.36516 22.211C9.64954 22.2011 9.93442 22.2066 10.2193 22.2121C10.7188 22.2217 11.2182 22.2313 11.7148 22.1584L11.7144 22.1585C11.2178 22.2313 10.7183 22.2217 10.2189 22.2122C9.93398 22.2067 9.6491 22.2012 9.36472 22.211C9.19751 22.2168 9.20504 22.1202 9.21223 22.0279C9.21367 22.0094 9.2151 21.9911 9.2151 21.9737C9.21278 21.3509 9.21307 20.7277 9.21336 20.1047ZM4.44506 20.1484C4.44475 19.9318 4.44443 19.7152 4.44443 19.4986C4.44443 19.2773 4.44465 19.0559 4.44487 18.8345C4.44548 18.2257 4.44608 17.6167 4.4421 17.0073C4.44133 16.8597 4.46148 16.777 4.64289 16.7808C4.93852 16.7866 5.23437 16.7865 5.53015 16.7865C6.02859 16.7865 6.52684 16.7864 7.02357 16.8141C7.4236 16.8365 7.76603 16.9657 8.03138 17.1753C7.76613 16.966 7.42393 16.8371 7.02425 16.8146C6.52752 16.787 6.02926 16.787 5.53081 16.7871C5.23503 16.7871 4.93919 16.7871 4.64357 16.7814C4.46217 16.7775 4.44201 16.8602 4.44279 17.0079C4.44628 17.6305 4.44584 18.2531 4.44541 18.8758L4.44512 19.4984C4.44512 19.7219 4.44551 19.9454 4.4459 20.1689V20.1689V20.1689V20.169V20.1691V20.1692C4.44697 20.7758 4.44804 21.3826 4.44124 21.9897C4.44027 22.0639 4.44819 22.1169 4.47085 22.1529C4.44797 22.1169 4.43991 22.0637 4.44056 21.9892C4.44686 21.3756 4.44596 20.762 4.44506 20.1484ZM14.6886 20.1137C14.6884 19.9061 14.6881 19.6985 14.6881 19.4909C14.6881 19.2857 14.6884 19.0806 14.6887 18.8755V18.8754V18.8754V18.8754V18.8753V18.8752C14.6896 18.2596 14.6904 17.644 14.6835 17.0266C14.6819 16.8419 14.7284 16.777 14.9238 16.7785C16.0571 16.787 17.1897 16.7862 18.3231 16.7793C18.4351 16.7783 18.499 16.7999 18.5295 16.8576C18.4985 16.8012 18.4346 16.7801 18.3243 16.7811C17.1909 16.788 16.0583 16.7888 14.925 16.7803C14.7288 16.7788 14.6823 16.8429 14.6847 17.0284C14.6914 17.6282 14.6904 18.228 14.6893 18.8278V18.8281C14.6889 19.0491 14.6885 19.2701 14.6885 19.4912C14.6885 19.7099 14.6888 19.9286 14.6891 20.1472V20.1472V20.1473C14.6898 20.7593 14.6906 21.3713 14.6854 21.984C14.6847 22.0607 14.6909 22.1177 14.7158 22.1561C14.6899 22.1177 14.6835 22.0601 14.6842 21.9822C14.6901 21.3597 14.6893 20.7367 14.6886 20.1139V20.1137ZM18.0407 18.9008C18.0127 18.8518 17.9569 18.8335 17.8642 18.8354C17.5849 18.8414 17.3057 18.8401 17.0262 18.8388C16.9084 18.8383 16.7906 18.8377 16.6727 18.8377C16.3766 18.8377 16.2289 18.8377 16.1545 18.7639C16.1467 18.7562 16.1398 18.7478 16.1336 18.7385C16.1401 18.7485 16.1474 18.7575 16.1556 18.7657C16.2301 18.8395 16.3778 18.8395 16.6739 18.8395C16.7896 18.8395 16.9054 18.84 17.0212 18.8405H17.0213H17.0214C17.3028 18.8416 17.5843 18.8427 17.8654 18.8372C17.9572 18.8353 18.0125 18.8529 18.0407 18.9008ZM11.0225 17.9769C10.9931 17.977 10.9637 17.9772 10.9343 17.9769C10.962 17.9771 10.9897 17.977 11.0174 17.9768C11.0568 17.9766 11.0962 17.9764 11.1355 17.9771C11.0979 17.9765 11.0602 17.9767 11.0225 17.9769ZM12.5963 19.4746C12.5933 19.1998 12.5446 18.9589 12.4528 18.7551C12.5444 18.9589 12.593 19.1996 12.596 19.4741C12.6053 20.3615 12.1634 20.8887 11.3138 21.0038C10.885 21.0617 10.7032 21.0863 10.6262 20.9578C10.6357 20.9738 10.6469 20.9875 10.6599 20.999C10.7519 21.0802 10.9379 21.0551 11.3141 21.0043C12.1637 20.8892 12.6063 20.362 12.5963 19.4746ZM5.96312 18.0052C6.04448 17.9731 6.17732 17.9733 6.3942 17.9736C6.42003 17.9736 6.4459 17.9733 6.47178 17.9731C6.56238 17.9723 6.65303 17.9715 6.74227 17.9805C7.05003 18.0122 7.24461 18.2186 7.25159 18.5093C7.25466 18.6391 7.2216 18.756 7.1573 18.8488C7.22198 18.7559 7.25525 18.6388 7.25217 18.509C7.24519 18.2176 7.05061 18.012 6.74285 17.9803C6.65363 17.9713 6.56299 17.9721 6.47242 17.9729H6.47238C6.4465 17.9731 6.42062 17.9733 6.39478 17.9733C6.17735 17.973 6.04438 17.9728 5.96312 18.0052Z" fill="#EEEEEE"/>
<path d="M8.23459 11.2567C8.33968 11.1277 8.44773 11.0012 8.54984 10.8698C8.84328 10.4922 9.06783 10.4803 9.41232 10.6202C9.68941 10.7324 9.84257 11.149 9.76475 11.4831C9.71964 11.6768 9.60118 11.8251 9.48122 11.9748C9.3811 12.0994 9.28741 12.2293 9.19125 12.3569C8.90475 12.6949 8.63014 13.0428 8.36743 13.3996C8.12009 13.7075 7.87671 14.0184 7.6254 14.3228C7.25612 14.7696 6.93939 15.2599 6.52153 15.6661C6.21818 15.9607 5.91581 15.9552 5.62683 15.6389C5.28481 15.2648 4.95568 14.8793 4.62358 14.4968C4.46893 14.3194 4.40846 14.1074 4.43621 13.8771C4.4719 13.581 4.61119 13.3478 4.90265 13.2405C5.19163 13.1343 5.42063 13.2469 5.61047 13.4669C5.70317 13.5746 5.79735 13.6813 5.89202 13.7871C6.06898 13.9848 6.0779 13.9912 6.24147 13.7866C6.6623 13.2613 7.07471 12.7295 7.49058 12.2002C7.75131 11.8953 7.99865 11.5804 8.23459 11.2567Z" fill="#B8B8B8"/>
<path d="M9.19221 12.3562C8.90571 12.6942 8.63111 13.0422 8.3684 13.399C8.44126 13.5992 8.471 13.8087 8.49529 14.0187C8.51661 14.6306 8.34411 15.1836 7.98623 15.6798C7.57977 16.1587 7.08162 16.4859 6.4526 16.5916C6.32571 16.6129 6.19634 16.6193 6.06796 16.6321C5.5579 16.6371 5.08949 16.4933 4.65032 16.2402C4.58836 16.2046 4.56159 16.1142 4.47088 16.1256C4.32515 15.9689 4.16158 15.8256 4.03716 15.6541C3.63566 15.0996 3.49886 14.4724 3.57222 13.7963C3.65698 13.3614 3.82898 12.9646 4.09764 12.6107C4.46394 12.2124 4.88676 11.9045 5.42506 11.7795C5.51527 11.7587 5.60549 11.7384 5.6957 11.7177C5.68728 11.6781 5.67141 11.649 5.65109 11.6277C5.67141 11.6495 5.68678 11.6781 5.6957 11.7177C6.22856 11.6851 6.74406 11.7404 7.21644 12.0137C7.31211 12.0691 7.41273 12.1175 7.49055 12.1995C7.75128 11.8951 7.99912 11.5803 8.23506 11.2566C7.46329 10.6818 6.59189 10.45 5.63919 10.5405C5.08156 10.5933 4.55614 10.7643 4.08822 11.0846C3.61385 11.3614 3.23516 11.734 2.95064 12.2025C2.68446 12.5845 2.52237 13.0081 2.43761 13.4632C2.27899 14.2401 2.37119 14.9869 2.70429 15.706C2.94766 16.2289 3.29761 16.6677 3.74967 17.0265C4.94277 17.9734 6.56562 18.0589 7.81373 17.3438C8.36146 17.0458 8.79964 16.6341 9.11786 16.0974C9.47178 15.5691 9.64725 14.9844 9.66955 14.3523C9.71813 13.6377 9.55802 12.9725 9.19221 12.3562ZM5.61838 11.6001C5.60598 11.5926 5.5931 11.5862 5.57922 11.5813C5.5931 11.5867 5.60598 11.5926 5.61838 11.6001Z" fill="#B8B8B8"/>
<path d="M9.66887 22.6998C9.64954 22.2432 9.53305 21.8117 9.33032 21.4025C9.31595 21.3684 9.30504 21.3328 9.2872 21.3012C8.57987 20.0168 7.48987 19.3441 6.02267 19.3095C5.40356 19.2952 4.81172 19.444 4.27292 19.7647C3.93091 19.9347 3.63152 20.1601 3.3817 20.4497C3.07784 20.7432 2.84735 21.0852 2.69122 21.4772C2.38538 22.1078 2.30409 22.7755 2.40025 23.4604C2.75417 25.9789 5.51509 27.3746 7.76051 26.1682C8.53872 25.7501 9.10578 25.1324 9.41756 24.2966C9.64756 23.7871 9.70753 23.2514 9.66887 22.6998ZM8.73799 22.4171C8.71271 22.4097 8.68792 22.4018 8.66264 22.3944C8.68792 22.4018 8.7132 22.4097 8.73799 22.4171ZM8.62547 22.3845C8.5754 22.3717 8.52485 22.3628 8.4723 22.3653C8.52485 22.3628 8.5754 22.3717 8.62547 22.3845ZM7.53944 20.851C7.52308 20.849 7.50672 20.848 7.48987 20.847C7.50672 20.8475 7.52308 20.849 7.53944 20.851ZM6.02267 20.3854C6.00829 20.376 5.99193 20.3696 5.97458 20.3637C5.99193 20.3691 6.00829 20.376 6.02267 20.3854ZM4.54902 20.9558C4.51779 20.9261 4.48408 20.9009 4.4479 20.8801C4.48408 20.9009 4.51729 20.9261 4.54902 20.9558ZM6.6958 25.3261C4.8722 25.8401 3.1859 24.2087 3.62061 22.3618C3.66324 22.1809 3.75345 22.0223 3.805 21.8478C4.00129 21.5068 4.24864 21.2093 4.55596 20.9617C5.01297 20.6528 5.51757 20.4947 6.06926 20.4818C6.06975 20.4714 6.06827 20.4625 6.06678 20.4541C6.06827 20.4625 6.06926 20.4714 6.06926 20.4818C6.52082 20.5154 6.9481 20.6286 7.33918 20.8619C7.39024 20.849 7.4403 20.8446 7.48987 20.8465C7.4403 20.8446 7.39024 20.849 7.33918 20.8619C7.89087 21.2291 8.2547 21.7322 8.43215 22.3692C8.43662 22.3687 8.44058 22.3682 8.44504 22.3677C8.44058 22.3682 8.43662 22.3682 8.43215 22.3692C8.53872 22.899 8.50502 23.4174 8.30576 23.9225C7.97266 24.6228 7.45071 25.1136 6.6958 25.3261Z" fill="#B8B8B8"/>
<path d="M7.52709 23.6395C7.37095 23.4383 7.18854 23.2574 6.98383 23.1017C6.83413 22.999 6.89312 22.9159 6.9987 22.8196C7.15731 22.6747 7.30651 22.5201 7.45621 22.3664C7.57566 22.2433 7.65299 22.101 7.62721 21.9206C7.6292 21.6374 7.46959 21.4585 7.22125 21.376C6.98036 21.2959 6.76028 21.368 6.58183 21.5598C6.43908 21.7135 6.28244 21.8548 6.1382 22.0076C6.06434 22.0856 6.02419 22.1054 5.91961 22.0239C5.73968 21.883 5.6103 21.6982 5.44475 21.5455C5.18898 21.3102 4.84547 21.2741 4.60061 21.499C4.35178 21.7278 4.33195 22.0881 4.5674 22.3382C4.74485 22.527 4.93717 22.7019 5.12305 22.8828C5.18799 22.95 5.14932 22.995 5.09579 23.0469C4.92875 23.209 4.76666 23.3755 4.6016 23.5391C4.46231 23.677 4.39391 23.8381 4.42613 24.0358C4.43059 24.2829 4.57037 24.4396 4.78649 24.5221C5.00905 24.6066 5.22714 24.576 5.40708 24.408C5.57808 24.2478 5.7486 24.0857 5.90474 23.9113C6.00238 23.8025 6.06087 23.8184 6.15109 23.9162C6.3102 24.0882 6.47724 24.2533 6.65023 24.4114C6.87329 24.6155 7.22225 24.6106 7.44481 24.4114C7.65943 24.2192 7.70751 23.8727 7.52709 23.6395Z" fill="#B8B8B8"/>
<rect x="11.27" y="11.9062" width="8.90797" height="1.48039" rx="0.740195" fill="#CBCBCB"/>
<rect x="11.27" y="20.0488" width="8.90797" height="1.48039" rx="0.740196" fill="#CBCBCB"/>
<rect x="11.27" y="14.127" width="2.96932" height="1.48039" rx="0.740196" fill="#CBCBCB"/>
<rect x="11.27" y="22.2695" width="2.96932" height="1.48039" rx="0.740196" fill="#CBCBCB"/>
</svg>
