<svg width="18" height="18" viewBox="0 0 18 18" fill="none" xmlns="http://www.w3.org/2000/svg">
<path d="M9.11251 1.50977C9.44918 1.57363 9.69253 1.78009 9.92658 2.01539C11.6239 3.71918 13.3261 5.41832 15.0265 7.11901C15.3845 7.47707 15.4872 7.93836 15.3024 8.3485C15.011 8.9961 14.1947 9.18768 13.6445 8.73631C13.5766 8.68082 13.5134 8.61944 13.4513 8.55744C12.6472 7.7539 11.8427 6.95099 11.0407 6.14559C10.6672 5.7708 10.2524 5.42793 10.0676 4.90154C10.0549 4.90495 10.0425 4.90805 10.0298 4.91146C10.0298 4.96602 10.0298 5.02058 10.0298 5.07545C10.0298 8.48056 10.0286 11.8857 10.0317 15.2908C10.032 15.6315 9.96533 15.9421 9.7102 16.1833C9.39244 16.4837 9.01641 16.5844 8.60472 16.4269C8.17629 16.2629 7.94006 15.9328 7.89201 15.4746C7.88302 15.3875 7.88519 15.2991 7.88519 15.2114C7.88488 11.8308 7.88488 8.44987 7.88488 5.06925C7.88488 5.01345 7.88488 4.95765 7.88488 4.91487C7.72771 5.14521 7.57426 5.37802 7.4115 5.60432C7.3495 5.69051 7.26704 5.76274 7.1914 5.83838C6.26913 6.75817 5.34439 7.67547 4.42429 8.59743C4.10157 8.92077 3.72523 9.06027 3.28037 8.93813C2.58627 8.74747 2.31005 7.87636 2.75522 7.30688C2.81505 7.23031 2.8817 7.15838 2.95052 7.08956C4.63664 5.4022 6.32524 3.71701 8.00889 2.02686C8.24325 1.79156 8.48506 1.58138 8.81986 1.50977C8.91752 1.50977 9.01517 1.50977 9.11251 1.50977Z" fill="white"/>
</svg>
